HIERARCHY
ROOT Hips
{
	OFFSET 0.00000 0.00000 0.00000
	CHANNELS 6 Xposition Yposition Zposition Zrotation Yrotation Xrotation 
	JOINT LHipJoint
	{
		OFFSET 0 0 0
		CHANNELS 3 Zrotation Yrotation Xrotation
		JOINT LeftUpLeg
		{
			OFFSET 1.54859 -1.61379 0.86856
			CHANNELS 3 Zrotation Yrotation Xrotation
			JOINT LeftLeg
			{
				OFFSET 2.25087 -6.18423 0.00000
				CHANNELS 3 Zrotation Yrotation Xrotation
				JOINT LeftFoot
				{
					OFFSET 2.40328 -6.60297 0.00000
					CHANNELS 3 Zrotation Yrotation Xrotation
					JOINT LeftToeBase
					{
						OFFSET 0.17435 -0.47901 2.02453
						CHANNELS 3 Zrotation Yrotation Xrotation
						End Site
						{
							OFFSET 0.00000 -0.00000 1.04844
						}
					}
				}
			}
		}
	}
	JOINT RHipJoint
	{
		OFFSET 0 0 0
		CHANNELS 3 Zrotation Yrotation Xrotation
		JOINT RightUpLeg
		{
			OFFSET -1.54669 -1.61379 0.86856
			CHANNELS 3 Zrotation Yrotation Xrotation
			JOINT RightLeg
			{
				OFFSET -2.28132 -6.26789 0.00000
				CHANNELS 3 Zrotation Yrotation Xrotation
				JOINT RightFoot
				{
					OFFSET -2.51636 -6.91365 0.00000
					CHANNELS 3 Zrotation Yrotation Xrotation
					JOINT RightToeBase
					{
						OFFSET -0.15124 -0.41552 2.21090
						CHANNELS 3 Zrotation Yrotation Xrotation
						End Site
						{
							OFFSET -0.00000 -0.00000 1.13399
						}
					}
				}
			}
		}
	}
	JOINT LowerBack
	{
		OFFSET 0 0 0
		CHANNELS 3 Zrotation Yrotation Xrotation
		JOINT Spine
		{
			OFFSET -0.04287 2.26161 -0.25690
			CHANNELS 3 Zrotation Yrotation Xrotation
			JOINT Spine1
			{
				OFFSET 0.02248 2.28395 -0.10140
				CHANNELS 3 Zrotation Yrotation Xrotation
				JOINT Neck
				{
					OFFSET 0 0 0
					CHANNELS 3 Zrotation Yrotation Xrotation
					JOINT Neck1
					{
						OFFSET -0.11644 1.38496 0.11345
						CHANNELS 3 Zrotation Yrotation Xrotation
						JOINT Head
						{
							OFFSET 0.29383 1.36600 0.06642
							CHANNELS 3 Zrotation Yrotation Xrotation
							End Site
							{
								OFFSET 0.11075 1.41395 -0.00294
							}
						}
					}
				}
				JOINT LeftShoulder
				{
					OFFSET 0 0 0
					CHANNELS 3 Zrotation Yrotation Xrotation
					JOINT LeftArm
					{
						OFFSET 3.51628 0.59542 -0.30346
						CHANNELS 3 Zrotation Yrotation Xrotation
						JOINT LeftForeArm
						{
							OFFSET 4.76405 -0.00000 0.00000
							CHANNELS 3 Zrotation Yrotation Xrotation
							JOINT LeftHand
							{
								OFFSET 3.13759 -0.00000 -0.00000
								CHANNELS 3 Zrotation Yrotation Xrotation
								JOINT LeftFingerBase
								{
									OFFSET 0 0 0
									CHANNELS 3 Zrotation Yrotation Xrotation
									JOINT LeftHandIndex1
									{
										OFFSET 0.73226 -0.00000 -0.00000
										CHANNELS 3 Zrotation Yrotation Xrotation
										End Site
										{
											OFFSET 0.59037 -0.00000 -0.00000
										}
									}
								}
								JOINT LThumb
								{
									OFFSET 0 0 0
									CHANNELS 3 Zrotation Yrotation Xrotation
									End Site
									{
										OFFSET 0.59938 -0.00000 0.59938
									}
								}
							}
						}
					}
				}
				JOINT RightShoulder
				{
					OFFSET 0 0 0
					CHANNELS 3 Zrotation Yrotation Xrotation
					JOINT RightArm
					{
						OFFSET -3.30990 0.84213 -0.36430
						CHANNELS 3 Zrotation Yrotation Xrotation
						JOINT RightForeArm
						{
							OFFSET -5.10161 -0.00000 -0.00000
							CHANNELS 3 Zrotation Yrotation Xrotation
							JOINT RightHand
							{
								OFFSET -3.23267 -0.00000 -0.00000
								CHANNELS 3 Zrotation Yrotation Xrotation
								JOINT RightFingerBase
								{
									OFFSET 0 0 0
									CHANNELS 3 Zrotation Yrotation Xrotation
									JOINT RightHandIndex1
									{
										OFFSET -0.70200 -0.00000 -0.00000
										CHANNELS 3 Zrotation Yrotation Xrotation
										End Site
										{
											OFFSET -0.56597 -0.00000 -0.00000
										}
									}
								}
								JOINT RThumb
								{
									OFFSET 0 0 0
									CHANNELS 3 Zrotation Yrotation Xrotation
									End Site
									{
										OFFSET -0.57461 -0.00000 0.57461
									}
								}
							}
						}
					}
				}
			}
		}
	}
}
MOTION
Frames: 8
Frame Time: 0.0526316
0.00 0.00 0.00 1.8585 26.5665 11.0077 0.0000 0.0000 0.0000 -27.8156 1.0380 -2.9435 10.2155 17.5293 60.2062 0.0304 0.5488 3.1434 0.9344 -6.1575 -17.2420 0.0000 0.0000 0.0000 5.5429 17.8922 -48.6682 -7.7376 -15.9228 51.6118 -0.3431 2.0272 -10.5461 -3.9894 12.1463 -36.2515 -3.3239 -1.6349 21.6508 2.9592 -2.4037 10.0335 5.5860 -1.2957 -0.8537 -10.2017 2.6718 -8.2342 5.1015 4.6790 -9.3482 3.5248 2.6729 -1.9998 0.0000 -0.0000 0.0000 -76.2898 11.3780 52.4346 16.9253 -26.7592 -4.0537 -0.0000 0.0000 -13.4367 28.2156 16.3499 8.5890 -7.1250 0.0000 -0.0000 0.4262 48.3932 0.0357 0.0000 -0.0000 0.0000 87.5058 31.3770 40.6934 -65.9345 57.6944 -39.3200 0.0000 0.0000 9.7940 -35.4607 37.2677 -23.3306 7.1250 -0.0000 -0.0000 -0.6528 13.0690 -0.7835
0.00 0.00 0.00 2.9416 32.6749 9.4798 0.0000 0.0000 0.0000 -26.3406 1.3689 -7.6728 14.4069 19.2328 73.4434 -0.0408 4.2021 0.8105 1.7433 -8.3095 -23.6581 0.0000 0.0000 0.0000 4.3236 16.5115 -42.6384 -9.6477 -17.2069 58.3042 -0.6752 -5.7806 -18.6892 -5.4707 13.8950 -42.8186 -3.2378 -2.1400 22.5665 2.7327 -2.9835 10.5508 5.4447 -1.5588 -0.6856 -9.6926 3.8137 -8.7882 4.1758 6.2551 -10.6072 3.1007 3.5093 -2.4100 -0.0000 -0.0000 0.0000 -73.9103 22.0347 49.9309 17.1056 -26.9968 -4.1352 -0.0000 0.0000 -17.1400 29.0579 19.5027 10.5088 -7.1250 0.0000 -0.0000 0.7571 52.0345 0.1311 -0.0000 -0.0000 0.0000 85.4645 26.0060 36.8728 -89.7662 59.9998 -59.7975 0.0000 0.0000 6.5004 -33.9851 35.6967 -21.4723 7.1250 -0.0000 -0.0000 -0.3009 10.9287 -0.3525
0.00 0.00 0.00 0.3834 37.0331 7.5001 0.0000 0.0000 0.0000 -22.5676 1.2078 -12.0119 16.9080 19.7692 80.9262 -0.0646 4.5424 -1.0306 0.9240 -6.1241 -17.1450 0.0000 0.0000 0.0000 7.8034 12.5469 -37.8357 -9.8924 -17.3489 59.1280 -1.0411 -7.0353 -23.0366 -5.6301 14.0600 -43.4785 -0.2427 -2.8871 22.4713 3.0182 -3.3066 10.7375 4.1038 -1.6034 -0.5759 -9.2126 4.4420 -7.5222 3.4619 6.9982 -13.2736 2.7026 3.9384 -3.5698 0.0000 0.0000 0.0000 -72.9693 28.6535 47.3014 16.5436 -26.2522 -3.8833 -0.0000 0.0000 -17.0885 30.0349 21.0433 11.7282 -7.1250 0.0000 -0.0000 1.4899 53.9342 0.3273 0.0000 0.0000 0.0000 84.2592 20.9198 35.1420 -107.6043 58.7960 -75.1842 0.0000 -0.0000 -1.1312 -38.1484 32.5072 -22.8852 7.1250 -0.0000 -0.0000 -3.3368 8.9798 -3.8228
0.00 0.00 0.00 -2.7375 43.0889 6.1781 0.0000 0.0000 0.0000 -18.8883 0.7031 -20.7547 19.5995 19.9962 88.8289 -0.0113 1.8827 -0.6814 0.9780 -6.2954 -17.6439 0.0000 0.0000 0.0000 11.7218 5.4323 -32.3286 -9.5088 -17.1242 57.8335 -1.4429 -8.9944 -27.5339 -5.8006 14.2323 -44.1761 3.3664 -3.4341 20.9149 3.0668 -3.3618 10.5706 2.0510 -1.4785 -0.1913 -7.5930 5.1727 -8.1740 1.8249 7.8902 -14.3796 1.8355 4.4040 -3.7336 -0.0000 0.0000 0.0000 -71.5046 37.0401 45.3810 15.8492 -25.3158 -3.5813 -0.0000 0.0000 -16.6815 31.5996 24.0653 14.0827 -7.1250 0.0000 -0.0000 2.5749 57.6309 0.7966 -0.0000 0.0000 0.0000 84.3470 12.2783 32.5954 -131.5405 52.3550 -95.0509 0.0000 -0.0000 -19.3531 -32.7879 32.7395 -19.2070 7.1250 -0.0000 -0.0000 -0.3665 7.4287 -0.4108
0.00 0.00 0.00 -9.0830 53.4205 3.2504 0.0000 0.0000 0.0000 -23.2475 1.5815 -42.9311 17.3318 19.8284 82.1772 -0.2128 -10.2716 -2.9182 0.4163 -4.1416 -11.4755 0.0000 0.0000 0.0000 15.6919 -9.7893 -10.0567 -5.2312 -13.6395 41.8121 -1.0404 0.8058 -19.0297 -7.1523 15.4588 -49.4479 2.6741 -2.1208 17.9938 3.6894 -1.8931 9.4403 2.7157 -0.7912 0.0856 -7.8235 5.8755 -8.1450 1.8234 8.8407 -12.2895 1.8883 4.8528 -3.0657 0.0000 -0.0000 0.0000 -93.3350 52.6530 31.5066 13.0077 -21.2984 -2.4561 -0.0000 0.0000 -12.9230 17.3197 29.1245 8.6303 -7.1250 0.0000 -0.0000 -15.5814 59.5674 -5.6258 0.0000 -0.0000 0.0000 90.7725 -1.7927 22.8683 -142.4971 46.5189 -103.3960 0.0000 -0.0000 -38.2040 -39.4456 31.5277 -23.2784 7.1250 -0.0000 -0.0000 -4.2928 8.3881 -4.8859
0.00 0.00 0.00 -11.4036 56.8359 2.0951 0.0000 0.0000 0.0000 -27.2371 0.5293 -47.3721 13.2570 18.8730 69.9218 -0.1025 -10.0474 -5.1812 0.2907 -3.4671 -9.5820 0.0000 0.0000 0.0000 15.5012 -13.2696 0.3321 -2.8988 -10.5293 30.7085 0.0869 7.3147 -2.7912 -7.5513 15.7791 -50.9299 1.8984 -1.4353 16.3949 3.2707 -1.2051 9.2146 2.5526 -0.4692 0.6512 -7.9091 4.5981 -9.2425 5.1532 7.4174 -10.4527 3.1136 4.0685 -2.3297 -0.0000 0.0000 0.0000 -104.7335 50.7050 23.8207 11.8585 -19.5921 -2.0546 -0.0000 0.0000 -8.5455 10.0773 26.0574 4.4639 -7.1250 0.0000 -0.0000 -21.0735 55.1227 -5.4149 -0.0000 0.0000 0.0000 92.5166 -4.0260 18.8090 -139.6992 48.2471 -101.3366 0.0000 -0.0000 -50.4052 -34.5445 26.9396 -17.3223 7.1250 -0.0000 -0.0000 -2.5955 1.6651 -2.6726
0.00 0.00 0.00 -17.1315 61.8993 -0.9460 0.0000 0.0000 0.0000 -30.0834 -2.9576 -49.6180 7.5871 15.8070 51.0615 -0.2825 -12.4669 -4.2160 0.0345 -1.1994 -3.2977 0.0000 0.0000 0.0000 17.7864 -14.3560 14.0939 -1.0172 -6.4167 17.9983 -0.2425 -3.4894 8.7541 -6.6739 15.0510 -47.6298 1.8031 -0.8224 13.3304 3.3725 -0.5564 8.4086 2.5727 -0.1651 1.3867 -9.4252 2.2408 -10.5116 10.7588 4.6801 -8.1922 4.8956 2.7074 -1.1679 0.0000 -0.0000 0.0000 -115.3583 46.0267 15.6029 12.1697 -20.0587 -2.1602 -0.0000 0.0000 -5.0501 6.6597 21.6136 2.4627 -7.1250 0.0000 -0.0000 -21.9029 50.3999 -3.0422 0.0000 -0.0000 0.0000 92.3718 -7.7354 13.8004 -140.0820 48.0213 -101.6217 0.0000 -0.0000 -59.9897 -30.2970 20.7698 -11.7058 7.1250 -0.0000 -0.0000 -1.0851 -6.2696 -0.9603
0.00 0.00 0.00 -30.2680 65.9948 -12.8739 0.0000 0.0000 0.0000 -28.5101 -6.8100 -46.6247 3.5580 11.5477 34.1503 -0.3370 -11.4188 -1.2374 0.0010 -0.2002 -0.5500 0.0000 0.0000 0.0000 23.2860 -14.4945 22.0409 -1.1488 -6.8056 19.1408 -0.1422 -6.3286 7.5045 -5.2626 13.6736 -41.9452 4.1869 -0.6095 12.5222 3.9377 -0.0386 8.3440 1.7618 0.1889 1.7416 -9.7609 0.5219 -9.1820 13.4806 2.5817 -9.6061 5.7742 1.6209 -1.5696 -0.0000 -0.0000 0.0000 -119.9043 38.7647 12.0313 11.7841 -19.4800 -2.0297 -0.0000 0.0000 -4.6560 2.5988 17.9754 0.8025 -7.1250 0.0000 -0.0000 -23.8820 46.4785 -0.9233 -0.0000 -0.0000 0.0000 91.3083 -8.4845 9.3195 -143.4171 45.9099 -104.0603 0.0000 -0.0000 -56.8623 -25.8814 15.4650 -7.3715 7.1250 -0.0000 -0.0000 1.1811 -12.8893 0.8881
